<svg preserveAspectRatio="none" overflow="visible" style="display: block;" width="22" height="22" viewBox="0 0 22 22" fill="none" xmlns="http://www.w3.org/2000/svg">
<g id="Icon">
<path id="Vector" d="M3.3 8.70833H2.75C2.24374 8.70833 1.83333 9.11874 1.83333 9.625V12.375C1.83333 12.8813 2.24374 13.2917 2.75 13.2917H3.3C3.80626 13.2917 4.21667 12.8813 4.21667 12.375V9.625C4.21667 9.11874 3.80626 8.70833 3.3 8.70833Z" stroke="#B4C5FF" stroke-width="1.55833" stroke-linecap="round"/>
<path id="Vector_2" d="M19.25 8.70833H18.7C18.1937 8.70833 17.7833 9.11874 17.7833 9.625V12.375C17.7833 12.8813 18.1937 13.2917 18.7 13.2917H19.25C19.7563 13.2917 20.1667 12.8813 20.1667 12.375V9.625C20.1667 9.11874 19.7563 8.70833 19.25 8.70833Z" stroke="#B4C5FF" stroke-width="1.55833" stroke-linecap="round"/>
<path id="Vector_3" d="M6.05 9.625H5.31667C5.01291 9.625 4.76667 9.87124 4.76667 10.175V11.825C4.76667 12.1288 5.01291 12.375 5.31667 12.375H6.05C6.35376 12.375 6.6 12.1288 6.6 11.825V10.175C6.6 9.87124 6.35376 9.625 6.05 9.625Z" stroke="#B4C5FF" stroke-width="1.55833" stroke-linecap="round"/>
<path id="Vector_4" d="M16.6833 9.625H15.95C15.6462 9.625 15.4 9.87124 15.4 10.175V11.825C15.4 12.1288 15.6462 12.375 15.95 12.375H16.6833C16.9871 12.375 17.2333 12.1288 17.2333 11.825V10.175C17.2333 9.87124 16.9871 9.625 16.6833 9.625Z" stroke="#B4C5FF" stroke-width="1.55833" stroke-linecap="round"/>
<path id="Vector_5" d="M6.875 11H15.125" stroke="#B4C5FF" stroke-width="1.55833" stroke-linecap="round"/>
</g>
</svg>
